<?xml version="1.0" encoding="utf-8"?>
<!-- Generator: Adobe Illustrator 19.1.0, SVG Export Plug-In . SVG Version: 6.00 Build 0)  -->
<svg version="1.1" xmlns="http://www.w3.org/2000/svg" xmlns:xlink="http://www.w3.org/1999/xlink" x="0px" y="0px"
	 viewBox="0 0 69.6 69.9" style="enable-background:new 0 0 69.6 69.9;" xml:space="preserve">
<style type="text/css">
	.st0{fill:#FFFFFF;}
	.st1{fill:#F9CD21;}
</style>
<g id="Layer_1">
</g>
<g id="Layer_2">
	<g>
		<g id="_x3C_Clip_Group_x3E__xA0_Clipping_Path_112_">
			<g>
				<polygon class="st0" points="28.4,34.1 16.8,58 5.2,34.1 2.1,34.1 16.8,64.4 31.5,34.1 				"/>
			</g>
		</g>
		<g id="_x3C_Clip_Group_x3E__xA0_Clipping_Path_114_">
			<g>
				<path class="st0" d="M16.8,19.7c-4.2,0-7.6,3.6-7.6,7.9s3.4,7.9,7.6,7.9c4.2,0,7.6-3.6,7.6-7.9S21,19.7,16.8,19.7z M16.8,32.6
					c-2.7,0-4.9-2.3-4.9-5s2.2-5,4.9-5c2.7,0,4.9,2.3,4.9,5S19.5,32.6,16.8,32.6z"/>
			</g>
		</g>
		<g id="_x3C_Clip_Group_x3E__xA0_Clipping_Path_116_">
			<g>
				<polygon class="st1" points="58.3,42.2 57.1,42.9 17.6,66.7 16.4,67.4 17.8,69.9 19,69.2 58.5,45.4 59.7,44.7 				"/>
			</g>
		</g>
		<g id="_x3C_Clip_Group_x3E__xA0_Clipping_Path_120_">
			<g>
				<polygon class="st0" points="66.3,17.1 57.6,35.1 48.9,17.1 46.6,17.1 57.6,39.9 68.4,17.6 				"/>
			</g>
		</g>
		<g id="_x3C_Clip_Group_x3E__xA0_Clipping_Path_122_">
			<g>
				<path class="st0" d="M57.6,6.3c-3.2,0-5.7,2.7-5.7,5.9c0,3.3,2.6,6,5.7,6c3.2,0,5.7-2.7,5.7-6C63.3,9,60.8,6.3,57.6,6.3z
					 M57.6,16.1c-2,0-3.6-1.7-3.6-3.8c0-2.1,1.6-3.8,3.6-3.8c2,0,3.6,1.7,3.6,3.8C61.2,14.4,59.6,16.1,57.6,16.1z"/>
			</g>
		</g>
		<g id="_x3C_Clip_Group_x3E__xA0_Clipping_Path_4_">
			<g>
				<path class="st0" d="M16.8,10.6c-8.9,0-16.2,7.5-16.2,16.8c0,2.6,0.9,5.5,1.9,7.7c1.1-0.6,2.9-0.5,2.9-0.5s-1.7-3.8-1.5-7.1
					c0.3-7.4,5.8-13.4,12.9-13.4c7.1,0,12.9,6,12.9,13.4c0,2.5-0.6,5.5-1.7,7.5c0.3-0.2,1-0.7,1.1-0.7c1.2,0.2,0.7,1.3,1.5,1.8
					c1.1-2.3,2.3-5.7,2.3-8.5C33,18.1,25.7,10.6,16.8,10.6z"/>
			</g>
		</g>
		<g id="_x3C_Clip_Group_x3E__xA0_Clipping_Path_8_">
			<g>
				<path class="st0" d="M57.6,0c-6.6,0-12,5.6-12,12.4c0,1.9,0.7,4.1,1.4,5.7c0.8-0.4,2.1-0.4,2.1-0.4s-1.2-2.8-1.1-5.3
					c0.2-5.5,4.3-10,9.6-10c5.3,0,9.6,4.5,9.6,10c0,1.8-0.4,4.1-1.2,5.5c0.2-0.2,0.8-0.5,0.8-0.5c0.9,0.1,0.5,1,1.1,1.3
					c0.8-1.7,1.7-4.3,1.7-6.3C69.6,5.6,64.2,0,57.6,0z"/>
			</g>
		</g>
	</g>
</g>
</svg>
