<?xml version="1.0" encoding="utf-8"?>
<!-- Generator: Adobe Illustrator 19.1.0, SVG Export Plug-In . SVG Version: 6.00 Build 0)  -->
<svg version="1.1" id="Layer_1" xmlns="http://www.w3.org/2000/svg" xmlns:xlink="http://www.w3.org/1999/xlink" x="0px" y="0px"
	 viewBox="0 0 96.5 76.5" style="enable-background:new 0 0 96.5 76.5;" xml:space="preserve">
<style type="text/css">
	.st0{fill:#FFFFFF;}
	.st1{fill:#F9CD21;}
</style>
<g id="_x3C_Clip_Group_x3E__xA0_Clipping_Path_96_">
	<g>
		<rect x="46.7" y="34.5" class="st0" width="3" height="16.5"/>
	</g>
</g>
<g id="_x3C_Clip_Group_x3E__xA0_Clipping_Path_98_">
	<g>
		<polygon class="st0" points="80.6,46 61,34.7 59.7,34 58.2,36.5 59.5,37.3 79.1,48.5 80.4,49.3 81.9,46.7 		"/>
	</g>
</g>
<g id="_x3C_Clip_Group_x3E__xA0_Clipping_Path_100_">
	<g>
		<polygon class="st0" points="35.1,33.9 33.9,34.7 15.8,46 14.5,46.8 16.1,49.3 17.4,48.5 35.5,37.3 36.7,36.5 		"/>
	</g>
</g>
<g id="_x3C_Clip_Group_x3E__xA0_Clipping_Path_102_">
	<g>
		<path class="st1" d="M9,55.5l-9,5.2v15.8h18.1V60.7L9,55.5z M3,73.5V62.4L9,59l6,3.4v11.1H3z"/>
	</g>
</g>
<g id="_x3C_Clip_Group_x3E__xA0_Clipping_Path_104_">
	<g>
		<path class="st1" d="M48.2,55.5l-9,5.2v15.8h18.1V60.7L48.2,55.5z M42.2,73.5V62.4l6-3.4l6,3.4v11.1H42.2z"/>
	</g>
</g>
<g id="_x3C_Clip_Group_x3E__xA0_Clipping_Path_106_">
	<g>
		<path class="st1" d="M87.4,55.5l-9,5.2v15.8h18.1V60.7L87.4,55.5z M81.4,73.5V62.4l6-3.4l6,3.4v11.1H81.4z"/>
	</g>
</g>
<g id="_x3C_Clip_Group_x3E__xA0_Clipping_Path_108_">
	<g>
		<path class="st0" d="M47.5,0L34.7,9.6v18.9h25.6V9.6L47.5,0z M37.7,25.5V11.1l9.8-7.4l9.8,7.4v14.4H37.7z"/>
	</g>
</g>
</svg>
