<?xml version="1.0" encoding="utf-8"?>
<!-- Generator: Adobe Illustrator 19.1.0, SVG Export Plug-In . SVG Version: 6.00 Build 0)  -->
<svg version="1.1" id="Layer_1" xmlns="http://www.w3.org/2000/svg" xmlns:xlink="http://www.w3.org/1999/xlink" x="0px" y="0px"
	 viewBox="0 0 73.2 74.3" style="enable-background:new 0 0 73.2 74.3;" xml:space="preserve">
<style type="text/css">
	.st0{fill:#FFFFFF;}
	.st1{fill:#F9CD21;}
</style>
<g id="_x3C_Clip_Group_x3E__xA0_Clipping_Path_80_">
	<g>
		<polygon class="st0" points="60.6,35.4 60.6,71.3 12.6,71.3 12.6,35.4 9.6,35.4 9.6,74.3 63.6,74.3 63.6,35.4 		"/>
	</g>
</g>
<g id="_x3C_Clip_Group_x3E__xA0_Clipping_Path_82_">
	<g>
		<polygon class="st0" points="72.2,35.8 38.7,2.1 37.6,1 37.6,1 36.6,0 35.6,1.1 1.1,35.8 0,36.8 2.1,39 3.2,37.9 36.6,4.3 
			70.1,37.9 71.1,39 73.2,36.8 		"/>
	</g>
</g>
<g id="_x3C_Clip_Group_x3E__xA0_Clipping_Path_84_">
	<g>
		<path class="st1" d="M36.6,29.3l-15,3v13.6c0,4.2,2.6,9.7,5.9,12.3l9.1,7.4l9.1-7.4c3.3-2.6,5.9-8.1,5.9-12.3V32.3L36.6,29.3z
			 M43.9,55.8l-7.3,5.8l-7.3-5.8c-2.5-2-4.7-6.7-4.7-9.9V34.8l12-2.4l12,2.4v11.1C48.6,49.2,46.4,53.8,43.9,55.8z"/>
	</g>
</g>
</svg>
