<?xml version="1.0" encoding="utf-8"?>
<!-- Generator: Adobe Illustrator 19.1.0, SVG Export Plug-In . SVG Version: 6.00 Build 0)  -->
<svg version="1.1" xmlns="http://www.w3.org/2000/svg" xmlns:xlink="http://www.w3.org/1999/xlink" x="0px" y="0px"
	 viewBox="0 0 96.2 68.9" style="enable-background:new 0 0 96.2 68.9;" xml:space="preserve">
<style type="text/css">
	.st0{fill:#FFFFFF;}
	.st1{fill:#F9CD21;}
</style>
<g id="Layer_2">
</g>
<g id="Layer_1">
	<g id="_x3C_Clip_Group_x3E__xA0_Clipping_Path_63_">
		<g>
			<path class="st0" d="M20.5-0.1v69h54V41c-0.8,0.6-1.2,1-3,2.8v22.4h-48V2.6h48v24.2c1-0.7,1.8-1.8,3-3V-0.1H20.5z"/>
		</g>
	</g>
	<g id="_x3C_Clip_Group_x3E__xA0_Clipping_Path_65_">
		<g>
			<rect x="29.5" y="8.9" class="st0" width="39" height="3"/>
		</g>
	</g>
	<g id="_x3C_Clip_Group_x3E__xA0_Clipping_Path_67_">
		<g>
			<rect x="29.5" y="16.4" class="st0" width="39" height="3"/>
		</g>
	</g>
	<g id="_x3C_Clip_Group_x3E__xA0_Clipping_Path_69_">
		<g>
			<rect x="29.5" y="23.9" class="st0" width="39" height="3"/>
		</g>
	</g>
	<g id="_x3C_Clip_Group_x3E__xA0_Clipping_Path_71_">
		<g>
			<rect x="29.5" y="31.4" class="st0" width="33" height="3"/>
		</g>
	</g>
	<g id="_x3C_Clip_Group_x3E__xA0_Clipping_Path_73_">
		<g>
			<rect x="29.5" y="38.9" class="st0" width="25.5" height="3"/>
		</g>
	</g>
	<g id="_x3C_Clip_Group_x3E__xA0_Clipping_Path_75_">
		<g>
			<path class="st1" d="M54.9,51.6c1.2,1.7-2.7,2.3-2.9,2.7c-0.5,0.9-1.1,1.4-1.7,1.4c-0.3,0-0.6-0.4-0.9-1.4
				c-0.1-0.4-0.2-0.9-0.3-1.4c0-0.3,0-0.5,0-0.6l-3.1,0c0,0.1,0,0.3-0.1,0.6c-0.1,0.5-0.3,0.9-0.5,1.3c-0.9,1.4-2.4,2-5.1,1.6
				c-0.4-0.1-0.8-0.2-1.2-0.3c0.4-0.2,0.8-0.4,1.1-0.6c1.6-1,2.4-2.4,2.3-3.8c-0.1-1.2-0.6-2.1-2-2.9c-3.6-2-7.8,0.1-8,3.4
				c-0.1,1.2,0.4,2.3,1.2,3.4c-0.8,0.3-1.7,0.5-2.5,0.8c-0.4,0.1-0.8,0.2-1.2,0.3c-0.2,0.1-0.4,0.1-0.4,0.1l0.8,2.3
				c0.1,0,0.3-0.1,0.5-0.1c0.4-0.1,0.8-0.2,1.3-0.3c1.3-0.3,2.5-0.7,3.7-1.2c1.1,0.6,2.4,1.1,3.8,1.3c3.4,0.5,5.8-0.2,7.4-1.7
				c0.7,1,1.7,1.7,3.3,1.7c2.2,0,4.6-1.4,5.9-5.1C56.7,52.1,54.3,50.7,54.9,51.6z M38.6,50c0.6,0.3,0.7,0.5,0.7,1.1
				c0,0.7-0.3,1.3-1.2,1.9c-0.4,0.3-1,0.6-1.6,0.9c-0.6-0.7-1-1.5-1-2.2C35.6,50,37.2,49.3,38.6,50z"/>
		</g>
	</g>
	<g id="_x3C_Clip_Group_x3E__xA0_Clipping_Path_77_">
		<g>
			<path class="st1" d="M94.1,20.3l2.1-2L91,13.4l-2.1,2h0l0,0L56.7,45.7L54,51.1l0,0l-1.2,2.4L52,55.1l9.9-4.5L94.1,20.3L94.1,20.3
				L94.1,20.3z M60.2,48.3l-2,0.9l0.9-1.9L91,17.3l1,1L60.2,48.3z"/>
		</g>
	</g>
</g>
</svg>
