<?xml version="1.0" encoding="utf-8"?>
<!-- Generator: Adobe Illustrator 19.1.0, SVG Export Plug-In . SVG Version: 6.00 Build 0)  -->
<svg version="1.1" id="Layer_1" xmlns="http://www.w3.org/2000/svg" xmlns:xlink="http://www.w3.org/1999/xlink" x="0px" y="0px"
	 viewBox="0 0 76 35.6" style="enable-background:new 0 0 76 35.6;" xml:space="preserve">
<style type="text/css">
	.st0{fill:#FFFFFF;}
	.st1{fill:#F9CD1F;}
</style>
<g>
	<g id="_x3C_Clip_Group_x3E__xA0_Clipping_Path_54_">
		<g>
			<path class="st0" d="M17.4,0C7.8,0,0,8,0,17.8c0,9.8,7.8,17.8,17.4,17.8c9.6,0,17.4-8,17.4-17.8C34.9,8,27.1,0,17.4,0z
				 M17.4,32.5C9.5,32.5,3,25.9,3,17.8C3,9.7,9.5,3.1,17.4,3.1c8,0,14.4,6.6,14.4,14.7C31.9,25.9,25.4,32.5,17.4,32.5z"/>
		</g>
	</g>
	<g id="_x3C_Clip_Group_x3E__xA0_Clipping_Path_56_">
		<g>
			<path class="st1" d="M17.4,10.8c-3.8,0-6.8,3.1-6.8,7c0,3.8,3.1,7,6.8,7c3.8,0,6.8-3.1,6.8-7C24.3,13.9,21.2,10.8,17.4,10.8z
				 M17.4,21.6c-2.1,0-3.8-1.7-3.8-3.9c0-2.1,1.7-3.9,3.8-3.9s3.8,1.7,3.8,3.9C21.2,19.9,19.5,21.6,17.4,21.6z"/>
		</g>
	</g>
	<g id="_x3C_Clip_Group_x3E__xA0_Clipping_Path_58_">
		<g>
			<polygon class="st0" points="75.6,16.6 68.9,9.7 68.4,9.3 32,9.3 32,12.4 67.2,12.4 73,18.4 73,23.2 69.9,23.2 69.9,18.6 
				60.9,18.6 60.9,23.2 57.8,23.2 57.8,18.6 47.1,18.6 47.1,23.2 32,23.2 32,26.3 50.2,26.3 50.2,21.7 54.8,21.7 54.8,26.3 
				63.9,26.3 63.9,21.7 66.9,21.7 66.9,26.3 76,26.3 76,17.1 			"/>
		</g>
	</g>
	<g id="_x3C_Clip_Group_x3E__xA0_Clipping_Path_60_">
		<g>
			<rect x="36.6" y="13.9" class="st1" width="28.8" height="3.1"/>
		</g>
	</g>
</g>
</svg>
