<?xml version="1.0" encoding="utf-8"?>
<!-- Generator: Adobe Illustrator 19.1.0, SVG Export Plug-In . SVG Version: 6.00 Build 0)  -->
<svg version="1.1" id="Layer_1" xmlns="http://www.w3.org/2000/svg" xmlns:xlink="http://www.w3.org/1999/xlink" x="0px" y="0px"
	 viewBox="0 0 75.3 75" style="enable-background:new 0 0 75.3 75;" xml:space="preserve">
<style type="text/css">
	.st0{fill:#FFFFFF;}
	.st1{fill:#F9CD21;}
</style>
<g id="_x3C_Clip_Group_x3E__xA0_Clipping_Path_86_">
	<g>
		<polygon class="st0" points="60.2,54 60.2,72 12,72 12,36 9,36 9,75 63.3,75 63.3,54 		"/>
	</g>
</g>
<g id="_x3C_Clip_Group_x3E__xA0_Clipping_Path_88_">
	<g>
		<polygon class="st0" points="41.1,3.9 39.1,2.1 39.1,2.1 38.3,1.3 38,1 38,1 37,0 35.9,1 1.1,34.4 0,35.4 2.1,37.5 3.2,36.5 
			37,4.1 39,6 40,7 42.2,5 		"/>
	</g>
</g>
<g id="_x3C_Clip_Group_x3E__xA0_Clipping_Path_90_">
	<g>
		<path class="st1" d="M54.2,7.5c-11.6,0-21.1,9.4-21.1,21c0,11.6,9.4,21,21.1,21c11.6,0,21.1-9.4,21.1-21
			C75.3,16.9,65.9,7.5,54.2,7.5z M54.2,46.5c-10,0-18.1-8.1-18.1-18c0-9.9,8.1-18,18.1-18c10,0,18.1,8.1,18.1,18
			C72.3,38.4,64.2,46.5,54.2,46.5z"/>
	</g>
</g>
<g id="_x3C_Clip_Group_x3E__xA0_Clipping_Path_92_">
	<g>
		<path class="st1" d="M61.2,30.5c-0.4-0.7-0.8-1.2-1.3-1.7c-0.5-0.4-1-0.8-1.6-1c-0.5-0.2-1-0.4-1.4-0.5l-1.8-0.5v-7.4
			c1.8,0.3,3,1.5,3.4,3.5h2.6c-0.4-1.8-1.1-3.1-2-4.1c-1-1-2.3-1.6-3.9-1.8v-2h-1.7v2c-0.9,0.1-1.7,0.2-2.4,0.6
			c-0.8,0.3-1.4,0.8-2,1.3c-0.6,0.6-1,1.2-1.3,2c-0.3,0.7-0.5,1.6-0.5,2.5c0,0.9,0.1,1.6,0.4,2.3c0.2,0.6,0.6,1.1,1.1,1.6
			c0.5,0.4,1.2,0.8,1.9,1.1c0.8,0.3,1.7,0.6,2.8,0.9v8c-1.2-0.2-2.2-0.7-3-1.5c-0.8-0.8-1.2-1.8-1.3-3.2h-2.6c0.2,2.1,0.8,3.7,2,4.9
			c1.2,1.2,2.8,1.9,4.8,2.1v2.5h1.7v-2.5c1-0.1,1.8-0.3,2.7-0.6c0.8-0.3,1.5-0.8,2.1-1.3c0.6-0.5,1-1.2,1.4-2
			c0.3-0.8,0.5-1.6,0.5-2.6C61.8,32,61.6,31.2,61.2,30.5z M53.5,26.4c-0.5-0.1-1-0.3-1.4-0.5c-0.4-0.2-0.8-0.4-1.1-0.6
			c-0.3-0.2-0.6-0.6-0.7-0.9C50.1,24,50,23.5,50,23c0-1.1,0.3-2,1-2.6c0.7-0.6,1.5-0.9,2.5-1V26.4z M58.8,34.8
			c-0.2,0.5-0.5,0.9-0.8,1.2c-0.4,0.3-0.8,0.5-1.2,0.7c-0.5,0.2-1,0.3-1.6,0.3v-7.5c0.5,0.2,1.1,0.3,1.5,0.5
			c0.5,0.2,0.9,0.4,1.2,0.7c0.3,0.3,0.6,0.6,0.8,1c0.2,0.4,0.3,0.9,0.3,1.5C59,33.8,58.9,34.4,58.8,34.8z"/>
	</g>
</g>
<g id="_x3C_Clip_Group_x3E__xA0_Clipping_Path_94_">
	<g>
		<path class="st0" d="M19.6,49.5V75h16.6V49.5H19.6z M33.1,72H22.6V52.5h10.5V72z"/>
	</g>
</g>
</svg>
